<svg width="84.206909" height="84.206940" viewBox="0 0 84.2069 84.2069" fill="none" xmlns="http://www.w3.org/2000/svg" xmlns:xlink="http://www.w3.org/1999/xlink">
	<desc>
			Created with Pixso.
	</desc>
	<defs>
		<clipPath id="clip102_167">
			<rect id="github" width="42.103458" height="42.103477" transform="translate(21.893799 21.893585)" fill="white" fill-opacity="0"/>
		</clipPath>
	</defs>
	<rect id="octagon" width="84.206932" height="84.206932" fill="#FFFFFF" fill-opacity="0"/>
	<path id="Vector" d="M56.6292 7.01715L77.1896 27.5777L77.1896 56.6291L56.6292 77.1896L27.5778 77.1896L7.01721 56.6291L7.01721 27.5777L27.5778 7.01715L56.6292 7.01715Z" stroke="#FFAA00" stroke-opacity="1.000000" stroke-width="3.368278" stroke-linejoin="round"/>
	<path id="Fill 102" d="M77.2194 52.9641C76.6785 52.9641 76.1567 53.0451 75.6646 53.1943C74.767 49.4129 71.3685 46.6 67.3123 46.6C63.2814 46.6 59.9 49.3784 58.9772 53.1243C58.5604 53.0201 58.1246 52.9641 57.6757 52.9641C54.7194 52.9641 52.3228 55.3606 52.3228 58.3166C52.3228 61.2728 54.7194 63.6691 57.6757 63.6691L66.0032 63.6691C66.4301 63.7344 66.8672 63.7684 67.3123 63.7684C67.7575 63.7684 68.1946 63.7344 68.6215 63.6691L77.2194 63.6691C80.1754 63.6691 82.5719 61.2728 82.5719 58.3166C82.5719 55.3606 80.1754 52.9641 77.2194 52.9641Z" fill="#B0D6F4" fill-opacity="1.000000" fill-rule="evenodd"/>
	<rect id="github" width="42.103458" height="42.103477" transform="translate(21.893799 21.893585)" fill="#FFFFFF" fill-opacity="0"/>
	<g clip-path="url(#clip102_167)">
		<path id="Vector" d="M25.4025 49.9628L37.6826 55.2257C28.9111 57.8572 28.9111 50.84 25.4025 49.9628ZM49.9628 60.4887L49.9628 53.6995C50.0286 52.863 49.9156 52.022 49.6313 51.2326C49.3469 50.4431 48.8978 49.7232 48.3138 49.1208C53.8223 48.5067 59.6115 46.4191 59.6115 36.8406C59.6111 34.3912 58.6689 32.0359 56.98 30.2619C57.7798 28.119 57.7232 25.7504 56.8221 23.6481C56.8221 23.6481 54.7521 23.0341 49.9628 26.2445C45.942 25.1548 41.7035 25.1548 37.6826 26.2445C32.8934 23.0341 30.8233 23.6481 30.8233 23.6481C29.9222 25.7504 29.8657 28.119 30.6654 30.2619C28.9639 32.049 28.0208 34.4257 28.0339 36.8932C28.0339 46.4016 33.8232 48.4892 39.3317 49.1734C38.7545 49.7698 38.3094 50.481 38.0253 51.2609C37.7411 52.0407 37.6244 52.8716 37.6826 53.6995L37.6826 60.4887" stroke="#FFE55D" stroke-opacity="1.000000" stroke-width="3.368278" stroke-linejoin="round" stroke-linecap="round"/>
	</g>
</svg>
